<svg xmlns="http://www.w3.org/2000/svg" version="1.1" xmlns:xlink="http://www.w3.org/1999/xlink" xmlns:svgjs="http://svgjs.dev/svgjs" width="1000" height="1000"><g clip-path="url(#SvgjsClipPath1217)"><rect width="1000" height="1000" fill="#ffffff"></rect><g transform="matrix(2.6130128037627385,0,0,2.6130128037627385,0,24.49699503527563)"><svg xmlns="http://www.w3.org/2000/svg" version="1.1" xmlns:xlink="http://www.w3.org/1999/xlink" xmlns:svgjs="http://svgjs.dev/svgjs" width="382.7" height="363.95"><svg id="Layer_1" data-name="Layer 1" xmlns="http://www.w3.org/2000/svg" xmlns:xlink="http://www.w3.org/1999/xlink" viewBox="0 0 382.7 363.95"><defs><style>.cls-1{fill:url(#linear-gradient);}.cls-2{fill:url(#linear-gradient-2);}.cls-3{fill:url(#linear-gradient-3);}.cls-4{fill:url(#linear-gradient-4);}.cls-5{fill:url(#linear-gradient-5);}.cls-6{fill:url(#linear-gradient-6);}.cls-7{fill:url(#linear-gradient-7);}.cls-8{fill:url(#linear-gradient-8);}.cls-9{fill:url(#linear-gradient-9);}.cls-10{fill:url(#linear-gradient-10);}.cls-11{fill:url(#linear-gradient-11);}.cls-12{fill:url(#linear-gradient-12);}.cls-13{fill:url(#linear-gradient-13);}.cls-14{fill:url(#linear-gradient-14);}.cls-15{fill:url(#linear-gradient-15);}.cls-16{fill:url(#linear-gradient-16);}.cls-17{fill:url(#linear-gradient-17);}.cls-18{fill:url(#linear-gradient-18);}.cls-19{fill:url(#linear-gradient-19);}.cls-20{fill:url(#linear-gradient-20);}</style><linearGradient id="linear-gradient" x1="301.74" y1="106.16" x2="295.01" y2="135.87" gradientTransform="translate(-2.85 -15.84) rotate(-0.93)" gradientUnits="userSpaceOnUse"><stop offset="0" stop-color="#c9aad1"></stop><stop offset="0.14" stop-color="#a78eaf"></stop><stop offset="0.45" stop-color="#64576c"></stop><stop offset="0.7" stop-color="#332e3b"></stop><stop offset="0.89" stop-color="#14151c"></stop><stop offset="1" stop-color="#090c11"></stop></linearGradient><linearGradient id="linear-gradient-2" x1="303.07" y1="115.64" x2="255.61" y2="158.8" xlink:href="#linear-gradient"></linearGradient><linearGradient id="linear-gradient-3" x1="270.28" y1="121.46" x2="301.11" y2="131.92" xlink:href="#linear-gradient"></linearGradient><linearGradient id="linear-gradient-4" x1="304.12" y1="108.63" x2="271.23" y2="147.12" xlink:href="#linear-gradient"></linearGradient><linearGradient id="linear-gradient-5" x1="272.18" y1="140.56" x2="301.57" y2="138.82" xlink:href="#linear-gradient"></linearGradient><linearGradient id="linear-gradient-6" x1="310.11" y1="113.75" x2="277.22" y2="152.24" xlink:href="#linear-gradient"></linearGradient><linearGradient id="linear-gradient-7" x1="316.5" y1="116.79" x2="291.84" y2="162.76" xlink:href="#linear-gradient"></linearGradient><linearGradient id="linear-gradient-8" x1="319" y1="133.94" x2="298.45" y2="141.6" xlink:href="#linear-gradient"></linearGradient><linearGradient id="linear-gradient-9" x1="305.05" y1="126.37" x2="343.67" y2="140.07" xlink:href="#linear-gradient"></linearGradient><linearGradient id="linear-gradient-10" x1="316.32" y1="115.57" x2="301.37" y2="137.62" xlink:href="#linear-gradient"></linearGradient><linearGradient id="linear-gradient-11" x1="301.64" y1="115.34" x2="268.46" y2="160.59" xlink:href="#linear-gradient"></linearGradient><linearGradient id="linear-gradient-12" x1="298.57" y1="113.09" x2="265.38" y2="158.34" xlink:href="#linear-gradient"></linearGradient><linearGradient id="linear-gradient-13" x1="306.76" y1="119.09" x2="273.57" y2="164.34" xlink:href="#linear-gradient"></linearGradient><linearGradient id="linear-gradient-14" x1="314.89" y1="125.05" x2="281.7" y2="170.31" xlink:href="#linear-gradient"></linearGradient><linearGradient id="linear-gradient-15" x1="311.73" y1="122.74" x2="278.54" y2="167.99" xlink:href="#linear-gradient"></linearGradient><linearGradient id="linear-gradient-16" x1="162.77" y1="229.4" x2="190.97" y2="229.4" gradientUnits="userSpaceOnUse"><stop offset="0" stop-color="#090c11"></stop><stop offset="0.11" stop-color="#14151c"></stop><stop offset="0.3" stop-color="#332e3b"></stop><stop offset="0.55" stop-color="#64576c"></stop><stop offset="0.86" stop-color="#a78eaf"></stop><stop offset="1" stop-color="#c9aad1"></stop></linearGradient><linearGradient id="linear-gradient-17" x1="54.29" y1="171.2" x2="190.29" y2="171.2" xlink:href="#linear-gradient-16"></linearGradient><linearGradient id="linear-gradient-18" x1="198.03" y1="195.96" x2="328.41" y2="195.96" gradientTransform="matrix(1, 0, 0, 1, 0, 0)" xlink:href="#linear-gradient"></linearGradient><linearGradient id="linear-gradient-19" x1="197.83" y1="148.64" x2="270.97" y2="148.64" gradientTransform="matrix(1, 0, 0, 1, 0, 0)" xlink:href="#linear-gradient"></linearGradient><linearGradient id="linear-gradient-20" x1="324.06" y1="256.55" x2="485.1" y2="256.55" gradientTransform="matrix(1.04, -0.77, 0.77, 1.04, -390.86, 235.66)" xlink:href="#linear-gradient"></linearGradient><clipPath id="SvgjsClipPath1217"><rect width="1000" height="1000" x="0" y="0" rx="300" ry="300"></rect></clipPath></defs><polygon class="cls-1" points="290.94 101.57 297.35 110.09 303.48 101.37 297 88.82 290.94 101.57"></polygon><polygon class="cls-2" points="297.35 110.09 303.48 101.37 297 88.82 297.35 110.09"></polygon><polygon class="cls-3" points="287.26 113.56 297.35 110.09 290.95 101.56 277.01 103.85 287.26 113.56"></polygon><polygon class="cls-4" points="297.35 110.09 290.95 101.56 277.01 103.85 297.35 110.09"></polygon><polygon class="cls-5" points="297.53 120.76 297.35 110.09 287.26 113.55 285.12 127.51 297.53 120.76"></polygon><polygon class="cls-6" points="297.35 110.09 287.26 113.55 285.12 127.51 297.35 110.09"></polygon><polygon class="cls-7" points="307.55 113.22 297.35 110.09 297.52 120.76 310.13 127.1 307.55 113.22"></polygon><polygon class="cls-8" points="297.35 110.09 297.52 120.76 310.13 127.1 297.35 110.09"></polygon><polygon class="cls-9" points="303.47 101.36 297.35 110.09 307.54 113.23 317.48 103.19 303.47 101.36"></polygon><polygon class="cls-10" points="297.35 110.09 307.54 113.23 317.48 103.19 297.35 110.09"></polygon><path class="cls-11" d="M297.35,110.09c-.18-7-.29-12.84-.35-21.27C297.22,97.23,297.3,103.12,297.35,110.09Z"></path><path class="cls-12" d="M297.35,110.09c-7.8-2.31-14.05-4.25-20.34-6.24C283.4,105.75,288.82,107.39,297.35,110.09Z"></path><path class="cls-13" d="M297.35,110.09c-3.62,5.25-7.05,10.19-12.23,17.42C290,120.5,293.25,115.82,297.35,110.09Z"></path><path class="cls-14" d="M297.35,110.09c4.08,5.33,7.78,10.22,12.78,17C305.32,120.8,302,116.37,297.35,110.09Z"></path><path class="cls-15" d="M297.35,110.09c5.79-2,11.63-4.08,20.13-6.9C310.08,105.79,304.56,107.7,297.35,110.09Z"></path><path class="cls-16" d="M188.67,194.81a6.16,6.16,0,0,0-.71.4l-.7.42-1.41.85c-.9.61-1.8,1.24-2.69,1.88a46.94,46.94,0,0,0-9.29,9.53,61.51,61.51,0,0,0-6.81,11.92,80.25,80.25,0,0,0-4.29,13q8.14,4.29,17.32,9.08l3.24,1.89v17.38a4.09,4.09,0,0,0,.37,1.68,3.13,3.13,0,0,0,.38,1.09,2.25,2.25,0,0,0,2.46,1.17,4.07,4.07,0,0,0,.61.06,3.93,3.93,0,0,0,3.82-4V193.66c-.28.13-.56.28-.84.42Z"></path><path class="cls-17" d="M167.06,201a52.3,52.3,0,0,1,10.78-11.31,50.91,50.91,0,0,1,12.45-7V119.14a4,4,0,0,0-.62-2.11,3.19,3.19,0,0,0-.34-1,2.68,2.68,0,0,0-2.18-1.11,3.94,3.94,0,0,0-1.65.28,4,4,0,0,0-3.21,3.92v62.51l-61.88-36.73L54.29,174.14c21,11,46,24,57.53,30.27,9.23,5,24.29,12.9,44.35,23.05a76.81,76.81,0,0,1,3.64-12.93A62.5,62.5,0,0,1,167.06,201Z"></path><path class="cls-18" d="M328.41,129a12.68,12.68,0,0,0-.79-4.26,4.88,4.88,0,0,0-.47-1.62,3.4,3.4,0,0,0-3-1.24,3.09,3.09,0,0,0-2.85,1.54,6.82,6.82,0,0,0-1.63,4.55l-1.32,62q-21.87-12.21-40.69-22.89a63.58,63.58,0,0,1-9.36,6.17q-3.36,1.83-6.86,3.32c-2.33,1-4.7,1.87-7.08,2.68a135.86,135.86,0,0,1-14.5,3.94c-4.87,1.06-9.76,1.89-14.61,2.68s-9.7,1.44-14.45,2.23c-2.38.39-4.73.81-7,1.3-1.88.4-3.71.88-5.47,1.42v40.74l-.06,7.52-.1,11.15-.1,7.9a7.43,7.43,0,0,0,.26,2.14v1.84a2.7,2.7,0,0,0,1.18,2.14,4.65,4.65,0,0,0,2.82.9c2.2,0,4-1.37,4-3V197.83c15.85,8.52,36.17,20.75,61,35,26.11,15,45.95,28.7,59.5,37.19l.66-36.16-.25-32.07.29-30.12Z"></path><path class="cls-19" d="M209.31,177.66c4.8-.8,9.55-1.45,14.26-2.17s9.38-1.43,14-2.32c9.22-1.79,18.29-4.2,26.61-8.21a67.19,67.19,0,0,0,6.06-3.32c.25-.15.48-.32.73-.48q-46.4-27-73.14-43.9l.45,39.16V180c1.27-.36,2.54-.66,3.8-1C204.51,178.52,206.92,178.07,209.31,177.66Z"></path><path class="cls-20" d="M161.73,275.13c-.48-1.15-1-2.29-1.41-3.47-.2-.59-.44-1.18-.62-1.77l-.57-1.8c-.21-.6-.34-1.21-.51-1.81s-.33-1.22-.46-1.83c-.27-1.23-.58-2.46-.79-3.7a85.41,85.41,0,0,1-1.44-15.08,83.72,83.72,0,0,1,5.18-30.08,63.82,63.82,0,0,1,7.3-13.8,53.34,53.34,0,0,1,10.91-11.5,52.11,52.11,0,0,1,14-7.64,63.56,63.56,0,0,1,7.6-2.11c2.52-.56,5-1,7.5-1.44,5-.82,9.89-1.49,14.77-2.22s9.72-1.46,14.51-2.38c9.55-1.82,18.94-4.29,27.55-8.37,2.14-1,4.25-2.14,6.27-3.37a57.31,57.31,0,0,0,5.82-4.08,51.93,51.93,0,0,0,13.59-16.43,59.33,59.33,0,0,0,3-6.63l.34-.85.3-.87c.2-.58.41-1.15.6-1.74.36-1.17.74-2.34,1-3.54.7-2.37,1.18-4.81,1.69-7.25a66.77,66.77,0,0,1-1.95,14.9,54.11,54.11,0,0,1-2.33,7.25,51.72,51.72,0,0,1-7.72,13.29,55.88,55.88,0,0,1-5.3,5.69,62.26,62.26,0,0,1-12.63,9c-2.26,1.23-4.58,2.36-6.94,3.37s-4.77,1.91-7.19,2.73a134.47,134.47,0,0,1-14.7,4c-4.94,1.09-9.89,1.93-14.82,2.74s-9.84,1.48-14.66,2.29c-2.41.4-4.79.82-7.13,1.33a61.45,61.45,0,0,0-6.74,1.8c-.54.17-1.07.39-1.6.6l-1.6.64a16.91,16.91,0,0,0-1.56.71l-1.55.75a8,8,0,0,0-.76.41l-.74.43-1.49.86c-.95.62-1.91,1.26-2.85,1.91a49.08,49.08,0,0,0-9.84,9.69,62.08,62.08,0,0,0-7.19,12.12,92.68,92.68,0,0,0-4.92,57.23Z"></path></svg></svg></g></g></svg>